<svg xmlns="http://www.w3.org/2000/svg" width="1251.018" height="40" viewBox="0 0 1251.018 40"><defs><style>.a,.c{fill:#fff;}.b,.d{fill:none;}.b{stroke:#000;stroke-linecap:round;stroke-linejoin:round;stroke-width:2px;}.c{font-size:16px;font-family:Poppins-Medium, Poppins;font-weight:500;letter-spacing:-0.02em;}.d{stroke:#fff;opacity:0;}</style></defs><g transform="translate(1)"><g transform="translate(1222.884)"><rect class="a" width="27" height="27" transform="translate(0.134)"/><g transform="translate(5.617 5.617)"><path class="b" d="M6.975,3h7.95A3.975,3.975,0,0,1,18.9,6.975v7.95A3.975,3.975,0,0,1,14.925,18.9H6.975A3.975,3.975,0,0,1,3,14.925V6.975A3.975,3.975,0,0,1,6.975,3Z" transform="translate(-3 -3)"/><path class="b" d="M18.391,14.649a3.18,3.18,0,1,1-2.679-2.679A3.18,3.18,0,0,1,18.391,14.649Z" transform="translate(-7.26 -7.199)"/><path class="b" d="M26.25,9.75h0" transform="translate(-13.927 -6.172)"/></g></g><g transform="translate(-493.982 -66)"><g transform="translate(1666.474 66)"><rect class="a" width="28" height="27" transform="translate(-0.474)"/></g><path d="M10.075,9.514l.47-3.061H7.607V4.467A1.531,1.531,0,0,1,9.333,2.813h1.335V.207A16.283,16.283,0,0,0,8.3,0c-2.419,0-4,1.466-4,4.12V6.453H1.609V9.514H4.3v7.4H7.607v-7.4Z" transform="translate(1674.168 71.427)"/></g><g transform="translate(0 3)"><text class="c" transform="translate(67 17)"><tspan x="-67.072" y="0">Poznaj przestrzeń</tspan></text><line class="d" x2="1" transform="translate(66.5 36.5)"/></g><g transform="translate(196 3)"><text class="c" transform="translate(25 17)"><tspan x="-24.952" y="0">Oferta</tspan></text><line class="d" x2="1" transform="translate(24.5 36.5)"/></g><g transform="translate(309 3)"><text class="c" transform="translate(42 17)"><tspan x="-42.232" y="0">Lokalizacja</tspan></text><line class="d" x2="1" transform="translate(41.5 36.5)"/></g><g transform="translate(713 3)"><text class="c" transform="translate(30 17)"><tspan x="-30.096" y="0">Kontakt</tspan></text><line class="d" x2="1" transform="translate(29.5 36.5)"/></g><g transform="translate(502 3)"><text class="c" transform="translate(51 17)"><tspan x="-51.096" y="0">Własne biuro</tspan></text><line class="d" x2="1" transform="translate(50.5 36.5)"/></g></g></svg>